<svg id="visual" viewBox="0 0 1920 320" width="1920" height="320" xmlns="http://www.w3.org/2000/svg" xmlns:xlink="http://www.w3.org/1999/xlink" version="1.1"><rect x="0" y="0" width="1920" height="320" fill="#001122"></rect><path d="M0 106L120 156L240 139L360 189L480 102L600 132L720 190L840 100L960 162L1080 104L1200 167L1320 203L1440 208L1560 204L1680 200L1800 161L1920 184L1920 321L1800 321L1680 321L1560 321L1440 321L1320 321L1200 321L1080 321L960 321L840 321L720 321L600 321L480 321L360 321L240 321L120 321L0 321Z" fill="#001122"></path><path d="M0 201L120 209L240 211L360 168L480 135L600 207L720 173L840 135L960 182L1080 194L1200 190L1320 165L1440 154L1560 198L1680 208L1800 185L1920 195L1920 321L1800 321L1680 321L1560 321L1440 321L1320 321L1200 321L1080 321L960 321L840 321L720 321L600 321L480 321L360 321L240 321L120 321L0 321Z" fill="#004054"></path><path d="M0 227L120 191L240 192L360 185L480 243L600 171L720 221L840 239L960 244L1080 207L1200 188L1320 187L1440 239L1560 230L1680 224L1800 200L1920 219L1920 321L1800 321L1680 321L1560 321L1440 321L1320 321L1200 321L1080 321L960 321L840 321L720 321L600 321L480 321L360 321L240 321L120 321L0 321Z" fill="#007478"></path><path d="M0 216L120 234L240 256L360 206L480 239L600 245L720 225L840 200L960 242L1080 253L1200 259L1320 219L1440 236L1560 207L1680 266L1800 199L1920 208L1920 321L1800 321L1680 321L1560 321L1440 321L1320 321L1200 321L1080 321L960 321L840 321L720 321L600 321L480 321L360 321L240 321L120 321L0 321Z" fill="#05aa82"></path><path d="M0 246L120 277L240 231L360 277L480 259L600 285L720 246L840 265L960 264L1080 278L1200 254L1320 257L1440 233L1560 251L1680 230L1800 266L1920 252L1920 321L1800 321L1680 321L1560 321L1440 321L1320 321L1200 321L1080 321L960 321L840 321L720 321L600 321L480 321L360 321L240 321L120 321L0 321Z" fill="#7adb60"></path><path d="M0 296L120 283L240 267L360 303L480 291L600 280L720 295L840 282L960 296L1080 290L1200 293L1320 266L1440 269L1560 293L1680 272L1800 290L1920 282L1920 321L1800 321L1680 321L1560 321L1440 321L1320 321L1200 321L1080 321L960 321L840 321L720 321L600 321L480 321L360 321L240 321L120 321L0 321Z" fill="#ffff00"></path></svg>