<svg id="visual" viewBox="0 0 1920 920" width="1920" height="920" xmlns="http://www.w3.org/2000/svg" xmlns:xlink="http://www.w3.org/1999/xlink" version="1.1"><rect x="0" y="0" width="1920" height="920" fill="#001122"></rect><path d="M0 765L160 688L320 722L480 714L640 752L800 746L960 701L1120 742L1280 733L1440 714L1600 755L1760 769L1920 713L1920 921L1760 921L1600 921L1440 921L1280 921L1120 921L960 921L800 921L640 921L480 921L320 921L160 921L0 921Z" fill="#ff00dd"></path><path d="M0 794L160 725L320 747L480 735L640 728L800 793L960 760L1120 753L1280 774L1440 754L1600 781L1760 762L1920 799L1920 921L1760 921L1600 921L1440 921L1280 921L1120 921L960 921L800 921L640 921L480 921L320 921L160 921L0 921Z" fill="#b039cd"></path><path d="M0 775L160 797L320 821L480 815L640 797L800 825L960 810L1120 783L1280 776L1440 775L1600 793L1760 778L1920 801L1920 921L1760 921L1600 921L1440 921L1280 921L1120 921L960 921L800 921L640 921L480 921L320 921L160 921L0 921Z" fill="#673fad"></path><path d="M0 838L160 819L320 816L480 815L640 842L800 792L960 803L1120 839L1280 838L1440 816L1600 829L1760 808L1920 795L1920 921L1760 921L1600 921L1440 921L1280 921L1120 921L960 921L800 921L640 921L480 921L320 921L160 921L0 921Z" fill="#2a3683"></path><path d="M0 863L160 832L320 827L480 832L640 843L800 848L960 845L1120 831L1280 862L1440 845L1600 874L1760 869L1920 847L1920 921L1760 921L1600 921L1440 921L1280 921L1120 921L960 921L800 921L640 921L480 921L320 921L160 921L0 921Z" fill="#002652"></path><path d="M0 875L160 871L320 884L480 862L640 862L800 887L960 886L1120 889L1280 860L1440 877L1600 896L1760 891L1920 897L1920 921L1760 921L1600 921L1440 921L1280 921L1120 921L960 921L800 921L640 921L480 921L320 921L160 921L0 921Z" fill="#001122"></path></svg>